<?xml version="1.0" encoding="UTF-8" standalone="no"?>
<!-- Created with Inkscape (http://www.inkscape.org/) -->

<svg
   version="1.1"
   id="svg1"
   width="6208.7983"
   height="1737.4515"
   viewBox="0 0 6208.7983 1737.4515"
   xmlns="http://www.w3.org/2000/svg"
   xmlns:svg="http://www.w3.org/2000/svg">
  <defs
     id="defs1" />
  <g
     id="g1"
     transform="translate(-0.20194161,-1.3759104)">
    <path
       style="fill:#fefefe"
       d="m 722.5,1541.3549 c -3.85,-0.1905 -25.30488,-1.0316 -47.67752,-1.8692 -45.04405,-1.6862 -56.45235,-2.5392 -74.77927,-5.5917 -54.42444,-9.0648 -156.51814,-57.864 -206.54321,-98.7245 -25.83289,-21.1004 -65.12101,-60.0899 -82.87464,-82.2448 -33.94338,-42.3583 -61.1787,-91.6949 -80.77028,-146.3148 -8.05162,-22.4473 -18.87275,-63.5222 -22.35841,-84.8681 -3.29933,-20.2048 -3.61684,-46.6293 -3.22307,-268.2418 0.28561,-160.74293 0.70264,-221.26112 1.56769,-227.5 1.72628,-12.45028 3.71381,-22.07793 9.2898,-45 17.5064,-71.96623 51.30432,-141.47362 95.4367,-196.27116 17.10718,-21.24134 58.69318,-62.97346 78.68945,-78.96592 46.73593,-37.37812 123.26201,-77.53726 180.5448,-94.74579 27.53891,-8.27307 48.23276,-10.90972 102.69796,-13.085 41.12955,-1.64266 273.14304,-2.34642 341.5,-1.03586 103.3207,1.9809 125.9461,4.33554 164,17.06761 55.1295,18.44525 119.3548,52.18189 164.1807,86.2419 27.5733,20.95103 73.1424,67.13571 95.0106,96.29422 35.43,47.24149 63.4126,103.71673 80.3274,162.11897 5.515,19.04159 11.9678,46.69293 13.9966,59.97773 3.0903,20.23563 3.6363,66.98202 3.1931,273.4033 -0.4534,211.1573 -0.5304,214.9375 -4.8212,236.5 -15.9638,80.2226 -47.6512,152.6126 -93.4539,213.4955 -25.9217,34.4562 -70.5968,78.542 -104.7903,103.408 -38.4427,27.956 -102.231,60.4959 -151.643,77.3568 -35.926,12.259 -51.7459,14.5368 -120,17.278 -32.9472,1.3232 -150.47252,1.8106 -151.66186,0.629 -0.46098,-0.458 -0.96234,-24.184 -1.11415,-52.7245 l -0.27601,-51.8916 2.27601,-0.5241 c 1.25181,-0.2882 33.32601,-1.2065 71.27601,-2.0406 88.0709,-1.9357 100.7023,-2.8288 135.1138,-9.5531 46.573,-9.1009 100.5036,-30.3273 136.3862,-53.6801 22.2354,-14.4711 46.806,-35.1682 70.5079,-59.3925 33.3085,-34.0427 57.5542,-69.1174 73.5227,-106.3608 18.6436,-43.4825 26.2372,-66.3374 33.0043,-99.3346 L 1433,1085.8308 1432.911,922.66539 C 1432.862,832.92443 1432.457,733.175 1432.0109,701 c -0.792,-57.13106 -0.8701,-58.78081 -3.3361,-70.5 -6.8199,-32.41054 -12.5766,-49.95957 -29.2877,-89.28314 -10.3994,-24.47117 -17.5078,-37.67595 -31.8777,-59.21686 -16.6086,-24.89692 -26.7461,-37.31907 -46.9673,-57.55196 -36.5704,-36.59176 -65.5145,-57.80347 -105.042,-76.98021 -28.6064,-13.87837 -48.2749,-21.05872 -80.5,-29.38806 -41.0568,-10.61208 -64.3338,-12.57594 -168,-14.17395 -108.43306,-1.6715 -256.02223,-0.11518 -296,3.1213 -44.3397,3.5896 -89.60733,14.62992 -128,31.2179 -50.96032,22.01798 -86.1902,46.66164 -128.5,89.88708 -18.68044,19.08471 -29.54052,32.73552 -46.46799,58.40895 -12.82847,19.4566 -21.34208,36.18301 -33.57258,65.95895 -12.43618,30.27669 -18.60929,49.57755 -23.89424,74.70773 L 306,648.91545 v 219.40846 219.40849 l 3.07066,15.2963 c 5.81354,28.9597 10.89782,45.7465 23.09853,76.2641 15.4749,38.7075 22.55167,52.554 40.0683,78.3986 13.94628,20.5768 28.69245,38.3188 47.22366,56.8177 47.93547,47.8519 90.69789,74.7608 151.03885,95.0437 55.09064,18.518 77.26477,21.4533 177,23.4303 l 43,0.8523 8.97748,4.8323 c 20.50351,11.0364 30.52252,27.309 30.52252,49.5739 0,23.7777 -16.71155,44.4716 -41.5,51.3897 -4.81645,1.3441 -11.22733,1.7135 -32.5,1.8722 -14.575,0.1088 -29.65,0.042 -33.5,-0.1486 z m 6.5,-161.4054 c -63.38722,-1.3624 -90.77923,-4.4139 -121.16028,-13.4974 -38.26075,-11.4395 -77.2103,-33.317 -115.5076,-64.8793 C 477.65109,1289.4736 443.19864,1254.9 432.96811,1242 c -25.21541,-31.7949 -44.14164,-68.8286 -61.40167,-120.1471 -3.025,-8.9941 -5.95285,-19.0529 -6.50632,-22.3529 -2.4987,-14.8981 -3.21906,-82.5451 -2.76338,-259.5 0.46898,-182.11774 0.69752,-193.5398 4.17235,-208.52297 2.08199,-8.97733 14.69225,-43.36943 22.7246,-61.97703 19.25556,-44.60706 43.30024,-78.1464 81.92279,-114.27216 61.64298,-57.658 118.98692,-86.7108 184.88352,-93.66961 30.06317,-3.17472 55.05069,-3.75791 182.5,-4.25939 125.81662,-0.49505 196.2107,0.33981 229,2.71589 53.1146,3.84895 94.6797,17.96308 140.395,47.67351 36.378,23.64211 79.7893,64.04074 105.2019,97.90097 20.3793,27.15389 35.6793,58.02478 52.7386,106.41079 6.8376,19.39388 7.9824,24.91552 9.1515,44.13841 1.3391,22.01684 1.3345,402.78139 -0.01,424.80799 -1.1941,19.6339 -2.788,26.7801 -11.2762,50.5536 -18.3353,51.3532 -35.2876,82.8992 -61.5304,114.5 -35.3506,42.5683 -85.4867,82.6611 -130.6753,104.4982 -34.6124,16.7263 -61.9046,23.7073 -105.5,26.9857 -37.1755,2.7955 -249.40234,4.3483 -337,2.4656 z M 940.63471,1277.939 c 74.75889,-1.8407 106.32699,-5.8439 154.32239,-19.5703 24.3344,-6.9594 40.6591,-14.7176 64.2844,-30.5506 45.2023,-30.2932 85.5917,-80.4615 103.3061,-128.3181 10.9745,-29.6483 16.3146,-53.598 17.5034,-78.5 1.1379,-23.83611 1.0983,-281.93604 -0.047,-305 -1.3551,-27.29501 -7.3954,-52.8372 -19.61,-82.92369 -12.959,-31.91989 -27.5345,-54.21511 -53.3774,-81.64815 -18.6203,-19.76595 -30.2791,-29.8756 -47.9248,-41.5568 -28.1058,-18.6057 -44.0783,-25.67681 -76.592,-33.90763 -59.9521,-15.17682 -73.9258,-16.25534 -211,-16.28533 -136.01425,-0.0298 -155.17662,1.3529 -211,15.22463 -32.41215,8.0542 -46.24625,13.42468 -67.01445,26.01542 -18.97002,11.5006 -32.59008,21.51482 -44.13037,32.44711 -11.76811,11.1481 -28.47205,29.11217 -36.70323,39.47205 -24.6072,30.97102 -42.6923,72.37522 -51.831,118.66239 -1.81212,9.17831 -2.05523,16.80596 -2.9587,92.82836 -1.26545,106.48169 0.138,247.69804 2.59062,260.67164 7.64932,40.4623 25.42174,83.3932 46.36547,112 13.20399,18.0352 38.6676,44.9967 54.70855,57.9269 10.13187,8.167 30.22735,21.3672 42.48695,27.9086 17.18765,9.1708 35.39431,15.2352 69.2175,23.0554 29.23992,6.7605 37.58625,7.7978 89.75305,11.1544 17.86641,1.1496 32.71641,2.3253 33,2.6128 0.64686,0.6558 92.56077,-0.4366 144.65032,-1.7191 z m -224.10643,-52.9534 c -18.7008,-3.3221 -34.83402,-17.4138 -39.93133,-34.8784 -3.74905,-12.8452 -2.72953,-28.8782 2.54264,-39.9857 3.01641,-6.355 16.935,-19.9333 23.86041,-23.277 9.38086,-4.5293 22.58426,-6.0094 34.10918,-3.8238 13.97633,2.6506 28.96543,14.2346 35.40185,27.3597 14.45415,29.4747 -1.31997,64.8916 -32.57375,73.1361 -7.19536,1.8981 -17.3916,2.538 -23.409,1.4691 z M 1003,1225.04 c -15.86056,-2.9596 -29.58635,-13.2528 -36.80424,-27.6 -5.1273,-10.1916 -6.76708,-27.721 -3.6023,-38.5085 3.69387,-12.591 15.10933,-26.1998 26.80387,-31.954 12.99557,-6.3943 33.21787,-6.3953 46.20377,0 9.1068,4.4832 19.1847,14.75 23.7891,24.235 12.1984,25.1286 1.8317,56.1813 -22.8902,68.5654 -9.3806,4.6991 -24.1183,7.0151 -33.5,5.2644 z m -399.6116,-65.9528 c -15.08165,-5.4308 -27.23423,-17.6499 -32.40978,-32.5872 -11.81555,-34.1011 13.63724,-69.0654 50.02138,-68.7139 17.79043,0.1718 32.30949,8.1758 42.98984,23.6991 6.18349,8.9874 7.21913,13.4668 6.82391,29.5148 -0.33638,13.6585 -0.52327,14.8192 -3.22045,20 -8.18998,15.7315 -22.2692,26.5817 -37.5933,28.9713 -10.05625,1.5681 -20.79207,1.2115 -26.6116,-0.8841 z M 1103,1159.3968 c -7.8077,-2.0889 -15.255,-6.8883 -22.2401,-14.3324 -8.2413,-8.783 -11.6359,-16.3247 -13.0391,-28.969 -2.0899,-18.8311 1.6251,-30.3465 13.7792,-42.7114 10.8108,-10.9983 22.2053,-15.7455 37.5,-15.6231 20.3729,0.1631 37.3825,11.0939 46.7465,30.0407 3.545,7.1728 3.7713,8.2074 4.1069,18.7801 0.5606,17.6607 -3.3882,28.2212 -14.7438,39.4304 -10.4655,10.3305 -22.4862,15.0422 -38.0697,14.9221 -4.6969,-0.036 -11.0149,-0.728 -14.0399,-1.5374 z m -264,-65.9923 c -34.18821,-6.3097 -60.84082,-16.0502 -87.77454,-32.0782 -26.96931,-16.0492 -61.19201,-47.6714 -71.2396,-65.8263 -1.21756,-2.2 -3.25666,-5.8 -4.53134,-8 -3.25894,-5.62471 -13.78736,-29.9364 -18.44061,-42.58213 -8.2328,-22.37353 -11.8963,-42.08714 -12.72142,-68.45516 C 643.2365,842.7169 647.9612,814.86646 659.80872,785 c 6.46499,-16.29762 21.29656,-45.32531 27.08012,-53 12.78075,-16.95986 44.58736,-44.19122 67.6901,-57.95316 16.38864,-9.76246 46.03277,-21.88782 60.18473,-24.61741 12.99037,-2.50555 39.30853,-3.67744 70.62761,-3.14489 34.6295,0.58884 36.21647,0.83983 58.24692,9.21232 28.43744,10.80741 49.16168,22.45622 71.3618,40.11147 11.8271,9.40585 33.6815,31.59355 38.7999,39.39167 9.6565,14.7122 24.2053,45.97933 30.4776,65.5 12.688,39.48712 13.7887,84.7974 3.0732,126.5 -6.0086,23.38449 -25.1719,65.35317 -36.0474,78.9458 -30.889,38.6066 -78.94658,69.7149 -126.73323,82.0361 -6.27638,1.6183 -14.93476,3.4281 -19.24084,4.0218 -7.9893,1.1015 -61.79395,2.2378 -66.32923,1.4008 z m 46.90666,-109.4312 c 17.23579,-1.52553 32.19549,-7.12016 49.94013,-18.67662 7.39129,-4.81369 25.71341,-23.12726 30.96714,-30.95269 9.07603,-13.51876 16.12673,-30.4454 18.18298,-43.65195 1.4117,-9.06686 1.41025,-34.90197 -0.002,-42.8423 -6.47828,-36.41349 -31.38824,-68.06664 -66.93531,-85.05483 -18.30072,-8.74605 -26.87471,-10.2557 -54.39395,-9.57736 -18.28455,0.45072 -19.59741,0.61891 -28.56966,3.66011 -38.66922,13.10716 -70.34804,45.43488 -79.6321,81.26325 -4.22925,16.32121 -3.67531,50.82808 1.04824,65.29827 9.97088,30.54496 32.83983,56.39523 62.9365,71.14123 15.4807,7.58484 26.6729,10.31028 42.55177,10.36187 6.875,0.0223 17.633,-0.4137 23.90666,-0.96898 z M 557.5,1054.8297 c -8.59017,-1.6263 -19.0873,-7.3781 -25.8588,-14.1693 -15.3515,-15.396 -19.94258,-40.4228 -10.92005,-59.52722 2.98681,-6.32428 13.40765,-17.72395 20.16732,-22.06161 27.22455,-17.46995 65.7141,-3.57315 75.96772,27.42843 8.2648,24.9885 -2.3797,51.7741 -24.99819,62.905 -11.7479,5.7813 -23.04941,7.5656 -34.358,5.4247 z m 595.5,-2.0226 c -16.5284,-6.2768 -30.0234,-21.9429 -33.1333,-38.4637 -1.6827,-8.9391 -0.4839,-23.90177 2.4398,-30.45062 9.8845,-22.14115 32.7235,-35.30966 55.5021,-32.00142 19.0642,2.7688 36.6745,17.45525 42.4003,35.3605 2.8661,8.96244 2.7898,23.04934 -0.1718,31.74814 -5.9304,17.4187 -19.0964,30.1757 -35.5721,34.4671 -8.8146,2.2959 -24.5505,1.9659 -31.465,-0.66 z M 555.45855,788.67236 c -11.52006,-2.95239 -21.91396,-10.1948 -29.41237,-20.49437 -7.23505,-9.93782 -8.31752,-13.60862 -8.82523,-29.92763 l -0.44334,-14.24965 3.45919,-7.25035 c 5.89829,-12.36263 15.25314,-21.51162 27.88159,-27.26803 5.54649,-2.52824 7.83882,-2.96008 17.51696,-3.29991 8.11313,-0.28487 12.59137,0.0327 16.5,1.16996 7.09632,2.06482 16.68491,7.96905 22.97601,14.14762 26.74212,26.26375 14.97187,74.43674 -20.89403,85.51459 -8.3724,2.58597 -22.05865,3.3749 -28.75878,1.65777 z M 1159,788.90205 c -8.2515,-1.61147 -17.0308,-6.74136 -24.5,-14.31576 -11.5963,-11.75963 -16.1239,-23.81216 -15.2463,-40.5856 1.0451,-19.97326 10.7979,-33.98709 30.7463,-44.17957 6.4466,-3.29382 6.6151,-3.32112 20.5,-3.32112 h 14 l 7.9156,3.86725 c 10.3374,5.05042 20.6217,15.14833 25.5966,25.13275 l 3.4878,7 v 15 15 l -3.4631,7 c -4.3191,8.73011 -15.0493,19.7609 -23.5369,24.19614 -10.0927,5.27403 -24.4045,7.37278 -35.5,5.20591 z M 610.66959,682.99252 c -3.63405,-0.46451 -8.97476,-2.30334 -14.17735,-4.88133 -10.17269,-5.04076 -17.80346,-12.91523 -23.30745,-24.0518 L 569.5,646.60373 v -15.07289 -15.07289 l 3.4171,-6.97898 C 577.23047,600.66948 587.86687,589.84473 597,584.9696 l 6.5,-3.4696 h 16.5 16.5 l 6.5,3.38925 c 8.26711,4.31065 19.69862,15.64319 23.33019,23.12819 4.96395,10.23117 6.77154,23.85696 4.65582,35.09607 -2.84886,15.13373 -16.21542,30.6703 -31.60546,36.73649 -4.49283,1.77091 -18.53634,4.37145 -21.70291,4.01888 -0.6477,-0.0721 -3.80132,-0.46648 -7.00805,-0.87636 z m 494.96451,-0.57898 c -13.187,-3.19188 -26.0586,-13.14132 -32.3529,-25.00799 -14.0287,-26.44854 -3.7347,-59.81612 22.3839,-72.55627 6.6863,-3.26146 7.161,-3.34082 21.8349,-3.65002 l 15,-0.31607 8.3596,4.07545 c 13.9571,6.8043 23.9731,18.62297 27.6075,32.57632 1.8951,7.27585 1.9661,21.24889 0.1428,28.09665 -7.001,26.29274 -36.0984,43.28754 -62.9758,36.78193 z M 716.5,619.04107 c -11.91654,-2.57982 -22.01582,-8.30671 -28.90381,-16.39017 -10.82654,-12.70559 -15.57043,-29.9678 -12.57548,-45.76008 5.12679,-27.03348 33.88959,-46.21835 60.76052,-40.52746 20.59753,4.36227 35.47934,18.65886 40.69715,39.09674 6.62318,25.94265 -8.22218,52.22371 -34.52656,61.12312 -8.03995,2.7201 -19.24312,3.80198 -25.45182,2.45785 z m 284.2251,-0.60684 c -18.61233,-4.50947 -33.2903,-19.14958 -38.23601,-38.13742 -1.9501,-7.48695 -1.89942,-20.53685 0.10629,-27.36531 5.42434,-18.46727 20.64498,-32.35901 39.90462,-36.42058 8.7294,-1.84091 11.2713,-1.84241 19.9124,-0.0118 10.1338,2.14684 18.3242,6.38746 25.746,13.33023 10.8391,10.13941 16.0797,22.59576 16.0797,38.21961 0,24.81316 -17.1685,45.07823 -42.7381,50.44664 -8.5061,1.78588 -13.2078,1.77199 -20.7749,-0.0614 z"
       id="path4" />
    <path
       style="display:inline;fill:#6b22a8"
       d="m 362,1738.3092 c -30.32632,-3.2124 -59.13772,-9.4645 -88.55021,-19.2156 C 137.05357,1673.8744 35.816318,1558.6542 7.5785394,1416.5 2.471443,1390.7899 1.8376243,1382.4237 0.98747012,1329.5 -0.04987784,1264.9231 -0.06266053,796.23984 0.96610124,546 L 1.7492664,355.5 4.3416027,340.5 C 11.877644,296.89431 21.786913,264.77557 38.787086,228.85247 59.71164,184.63676 91.018141,141.58983 126.16633,108.70465 175.79935,62.267247 237.15959,28.638907 301.5,12.613444 323.01076,7.2556931 341.36468,4.0123548 357.16246,2.7772764 380.91376,0.92038866 1358.9182,0.90325784 1382.5,2.7593165 c 31.9686,2.5161634 73.9543,12.9096115 107.0472,26.4992455 27.2588,11.193876 48.1635,22.373242 73.4528,39.28087 64.79,43.316578 115.0673,104.265748 145.3575,176.211008 14.6927,34.89793 26.0241,78.71356 28.7711,111.24956 1.6693,19.77285 2.504,933.3816 0.9062,992 -1.2177,44.6745 -1.6974,49.9375 -6.6503,72.9682 -11.4124,53.0664 -29.7249,96.7311 -58.9374,140.5318 -58.2785,87.3816 -144.2562,146.0188 -248.4471,169.4419 -24.0146,5.3987 -29.2319,5.9835 -63,7.0616 -27.3968,0.8746 -990.84551,1.1695 -999,0.3057 z m 426.5,-198.6779 c 9.62094,-2.6851 17.86319,-7.2371 24.25338,-13.3948 C 824.67401,1514.7497 830,1503.0163 830,1488.2416 c 0,-22.2649 -10.01901,-38.5375 -30.52252,-49.5739 l -8.97748,-4.8323 -43,-0.8523 c -99.73523,-1.977 -121.90936,-4.9123 -177,-23.4303 -60.34096,-20.2829 -103.10338,-47.1918 -151.03885,-95.0437 -18.53121,-18.4989 -33.27738,-36.2409 -47.22366,-56.8177 -17.51663,-25.8446 -24.5934,-39.6911 -40.0683,-78.3986 -12.20071,-30.5176 -17.28499,-47.3044 -23.09853,-76.2641 L 306,1087.7324 V 868.32391 648.91545 l 4.56519,-21.70772 c 5.28495,-25.13018 11.45806,-44.43104 23.89424,-74.70773 12.2305,-29.77594 20.74411,-46.50235 33.57258,-65.95895 16.92747,-25.67343 27.78755,-39.32424 46.46799,-58.40895 35.20588,-35.96778 64.43958,-58.24712 100.317,-76.45276 29.88236,-15.1635 49.69532,-22.92004 79.42167,-31.09267 37.27618,-10.24829 62.04063,-13.5734 115.76133,-15.54321 72.00132,-2.64012 296.6355,-2.00943 343.5,0.96442 33.4918,2.12526 55.8041,5.43019 81.5,12.07189 32.2251,8.32934 51.8936,15.50969 80.5,29.38806 39.5275,19.17674 68.4716,40.38845 105.042,76.98021 20.2212,20.23289 30.3587,32.65504 46.9673,57.55196 14.3699,21.54091 21.4783,34.74569 31.8777,59.21686 16.7111,39.32357 22.4678,56.8726 29.2877,89.28314 2.466,11.71919 2.5441,13.36894 3.3361,70.5 0.4461,32.175 0.8511,131.92443 0.9001,221.66539 l 0.089,163.16541 -3.9651,19.3346 c -6.7671,32.9972 -14.3607,55.8521 -33.0043,99.3346 -15.9685,37.2434 -40.2142,72.3181 -73.5227,106.3608 -23.7019,24.2243 -48.2725,44.9214 -70.5079,59.3925 -35.8826,23.3528 -89.8132,44.5792 -136.3862,53.6801 -34.4115,6.7243 -47.0429,7.6174 -135.1138,9.5531 -37.95,0.8341 -70.0242,1.7524 -71.27601,2.0406 l -2.27601,0.5241 0.27601,51.8916 c 0.15181,28.5405 0.65317,52.2665 1.11415,52.7245 1.18934,1.1816 118.71466,0.6942 151.66186,-0.629 68.2541,-2.7412 84.074,-5.019 120,-17.278 49.412,-16.8609 113.2003,-49.4008 151.643,-77.3568 34.1935,-24.866 78.8686,-68.9518 104.7903,-103.408 45.8027,-60.8829 77.4901,-133.2729 93.4539,-213.4955 4.2908,-21.5625 4.3678,-25.3427 4.8212,-236.5 0.4432,-206.42128 -0.1028,-253.16767 -3.1931,-273.4033 -2.0288,-13.2848 -8.4816,-40.93614 -13.9966,-59.97773 -16.9148,-58.40224 -44.8974,-114.87748 -80.3274,-162.11897 -21.8682,-29.15851 -67.4373,-75.34319 -95.0106,-96.29422 -44.8259,-34.06001 -109.0512,-67.79665 -164.1807,-86.2419 -38.0539,-12.73207 -60.6793,-15.08671 -164,-17.06761 -68.35696,-1.31056 -300.37045,-0.6068 -341.5,1.03586 -54.4652,2.17528 -75.15905,4.81193 -102.69796,13.085 -57.28279,17.20853 -133.80887,57.36767 -180.5448,94.74579 -19.99627,15.99246 -61.58227,57.72458 -78.68945,78.96592 -35.69038,44.31542 -64.28254,97.41765 -83.60361,155.27116 -8.96719,26.85067 -18.04772,63.82123 -21.12289,86 -1.60471,11.57346 -2.43121,437.4769 -0.90529,466.5 1.20198,22.8617 2.49279,31.7688 8.00555,55.2418 18.46771,78.6345 50.9505,146.8639 97.68381,205.1829 17.75363,22.1549 57.04175,61.1444 82.87464,82.2448 50.02507,40.8605 152.11877,89.6597 206.54321,98.7245 18.32692,3.0525 29.73522,3.9055 74.77927,5.5917 22.37264,0.8376 43.82752,1.6787 47.67752,1.8692 3.85,0.1905 18.925,0.2574 33.5,0.1486 21.27267,-0.1587 27.68355,-0.5281 32.5,-1.8722 z M 962,1380.0147 c 88.7263,-0.983 113.7762,-2.1551 139.5,-6.527 54.2977,-9.2283 108.5464,-38.4262 162,-87.1922 49.4088,-45.0759 75.3253,-85.1111 100.2057,-154.7955 8.4882,-23.7735 10.0821,-30.9197 11.2762,-50.5536 1.3396,-22.0266 1.3442,-402.79115 0.01,-424.80799 -1.1691,-19.22289 -2.3139,-24.74453 -9.1515,-44.13841 -17.0593,-48.38601 -32.3593,-79.2569 -52.7386,-106.41079 -25.4126,-33.86023 -68.8239,-74.25886 -105.2019,-97.90097 -45.7153,-29.71043 -87.2804,-43.82456 -140.395,-47.67351 -32.7893,-2.37608 -103.18338,-3.21094 -229,-2.71589 -127.44931,0.50148 -152.43683,1.08467 -182.5,4.25939 -65.8966,6.95881 -123.24054,36.01161 -184.88352,93.66961 -38.62255,36.12576 -62.66723,69.6651 -81.92279,114.27216 -8.03235,18.6076 -20.64261,52.9997 -22.7246,61.97703 -3.47483,14.98317 -3.70337,26.40523 -4.17235,208.52297 -0.45568,176.9549 0.26468,244.6019 2.76338,259.5 0.55347,3.3 3.48132,13.3588 6.50632,22.3529 17.26003,51.3185 36.18626,88.3522 61.40167,120.1471 10.23053,12.9 44.68298,47.4736 59.36401,59.5728 52.35709,43.1495 103.36058,66.9661 158.16788,73.8581 40.77916,5.1279 135.96883,6.5286 311.5,4.5838 z M 795.98439,1279.6581 c -0.28359,-0.2875 -15.13359,-1.4632 -33,-2.6128 -52.1668,-3.3566 -60.51313,-4.3939 -89.75305,-11.1544 -33.82319,-7.8202 -52.02985,-13.8846 -69.2175,-23.0554 -12.2596,-6.5414 -32.35508,-19.7416 -42.48695,-27.9086 -16.04095,-12.9302 -41.50456,-39.8917 -54.70855,-57.9269 -20.94373,-28.6068 -38.71615,-71.5377 -46.36547,-112 -2.45262,-12.9736 -3.85607,-154.18995 -2.59062,-260.67164 0.90347,-76.0224 1.14658,-83.65005 2.9587,-92.82836 7.77715,-39.39097 22.23664,-75.7983 41.50309,-104.5 15.93395,-23.73719 47.44034,-56.55051 68.45258,-71.29209 32.96526,-23.12747 50.28733,-31.00529 89.72338,-40.80488 55.82338,-13.87173 74.98575,-15.25439 211,-15.22463 137.0742,0.03 151.0479,1.10851 211,16.28533 32.5137,8.23082 48.4862,15.30193 76.592,33.90763 17.6457,11.6812 29.3045,21.79085 47.9248,41.5568 25.8429,27.43304 40.4184,49.72826 53.3774,81.64815 12.2146,30.08649 18.2549,55.62868 19.61,82.92369 1.1451,23.06396 1.1847,281.16389 0.047,305 -1.1888,24.902 -6.5289,48.8517 -17.5034,78.5 -17.7144,47.8566 -58.1038,98.0249 -103.3061,128.3181 -23.6253,15.833 -39.95,23.5912 -64.2844,30.5506 -47.9954,13.7264 -79.5635,17.7296 -154.32239,19.5703 -52.08955,1.2825 -144.00346,2.3749 -144.65032,1.7191 z m -56.04711,-56.1416 c 17.87318,-4.7148 32.26159,-19.5313 36.52294,-37.6096 4.4329,-18.806 -0.74601,-36.3308 -14.59812,-49.3982 -7.7986,-7.3568 -16.00637,-11.8292 -24.75292,-13.488 -11.52492,-2.1856 -24.72832,-0.7055 -34.10918,3.8238 -6.92541,3.3437 -20.844,16.922 -23.86041,23.277 -3.51232,7.3998 -5.41652,18.2802 -4.72281,26.9857 1.11115,13.9438 4.91441,23.0289 13.51331,32.2801 13.22399,14.2272 32.14713,19.3682 52.00719,14.1292 z m 287.25362,-0.1632 c 25.4173,-7.5353 40.2163,-30.65 36.72,-57.3533 -2.0506,-15.6623 -13.8259,-31.8945 -28.3098,-39.0248 -12.9859,-6.393 -33.2082,-6.392 -46.20377,0 -11.69454,5.7542 -23.11,19.363 -26.80387,31.954 -3.16478,10.7875 -1.525,28.3169 3.6023,38.5085 7.21789,14.3472 20.94368,24.6404 36.80424,27.6 5.8953,1.1001 17.5262,0.2892 24.1909,-1.6867 z M 630,1159.9713 c 15.3241,-2.3896 29.40332,-13.2398 37.5933,-28.9713 2.69718,-5.1808 2.88407,-6.3415 3.22045,-20 0.3182,-12.9204 0.12662,-15.0843 -1.7586,-19.8638 -5.67024,-14.3755 -18.80385,-26.7871 -33.05515,-31.238 -18.28713,-5.7113 -39.37169,-0.4128 -52.96816,13.3108 -26.75106,27.0012 -15.88863,72.8265 20.35656,85.8782 5.81953,2.0956 16.55535,2.4522 26.6116,0.8841 z m 501.3689,-0.4792 c 9.6112,-2.5034 16.6957,-6.526 23.7407,-13.48 11.3556,-11.2092 15.3044,-21.7697 14.7438,-39.4304 -0.3356,-10.5727 -0.5619,-11.6073 -4.1069,-18.7801 -13.6159,-27.5499 -44.7419,-37.9314 -72.2038,-24.0821 -6.9104,3.485 -18.3408,15.3358 -21.9161,22.7222 -6.0048,12.4058 -5.94,32.8807 0.1453,45.8846 5.657,12.0887 19.2397,23.863 31.2281,27.0705 7.2354,1.9359 21.1235,1.9825 28.3689,0.095 z m -226.03967,-67.4884 c 35.24004,-4.8586 77.3656,-24.091 109.66197,-50.0659 12.5123,-10.0632 27.2705,-24.6913 36.3121,-35.992 10.8755,-13.59263 30.0388,-55.56131 36.0474,-78.9458 10.7155,-41.7026 9.6148,-87.01288 -3.0732,-126.5 -6.2723,-19.52067 -20.8211,-50.7878 -30.4776,-65.5 -5.1184,-7.79812 -26.9728,-29.98582 -38.7999,-39.39167 -22.20012,-17.65525 -42.92436,-29.30406 -71.3618,-40.11147 -22.03045,-8.37249 -23.61742,-8.62348 -58.24692,-9.21232 -31.31908,-0.53255 -57.63724,0.63934 -70.62761,3.14489 -14.15196,2.72959 -43.79609,14.85495 -60.18473,24.61741 -23.10274,13.76194 -54.90935,40.9933 -67.6901,57.95316 -5.78356,7.67469 -20.61513,36.70238 -27.08012,53 -11.84752,29.86646 -16.57222,57.7169 -15.51623,91.46271 0.82512,26.36802 4.48862,46.08163 12.72142,68.45516 4.65325,12.64573 15.18167,36.95742 18.44061,42.58213 1.27468,2.2 3.31378,5.8 4.53134,8 4.06346,7.3423 10.40082,14.8769 24.01414,28.5509 37.05912,37.2246 79.75183,59.1571 135,69.3536 4.53528,0.837 58.33993,-0.2993 66.32923,-1.4008 z M 840,982.44847 c -18.90566,-4.88203 -40.52835,-17.71211 -55.30023,-32.81306 -12.45522,-12.73269 -22.79713,-29.68162 -28.18804,-46.19623 -4.72355,-14.47019 -5.27749,-48.97706 -1.04824,-65.29827 9.28406,-35.82837 40.96288,-68.15609 79.6321,-81.26325 8.97225,-3.0412 10.28511,-3.20939 28.56966,-3.66011 27.51924,-0.67834 36.09323,0.83131 54.39395,9.57736 31.17132,14.89699 55.47276,42.59335 64.23188,73.20509 2.9215,10.21016 3.83324,18.13903 3.79946,33.04178 -0.052,22.92981 -2.24575,33.19726 -10.74777,50.30221 -6.60626,13.29093 -11.5883,20.08588 -23.25227,31.71348 -20.09317,20.03051 -41.63236,30.7428 -66.18384,32.91583 -19.9787,1.7683 -35.09891,1.26607 -45.90666,-1.52483 z m -262.5,72.04713 c 15.85961,-3.3298 30.03835,-13.7044 36.38397,-26.6222 13.16425,-26.7985 3.12635,-57.65404 -23.03635,-70.81136 -16.52291,-8.30942 -35.0391,-7.56464 -49.95915,2.00953 -6.75967,4.33766 -17.18051,15.73733 -20.16732,22.06161 -11.75172,24.88322 -0.29443,57.35802 24.42076,69.21882 11.56725,5.5511 20.31735,6.6716 32.35809,4.1436 z m 606.965,-1.0285 c 16.4757,-4.2914 29.6417,-17.0484 35.5721,-34.4671 1.6825,-4.9419 2.2078,-8.7772 2.1914,-16 -0.036,-15.92293 -4.7326,-26.69636 -16.3107,-37.41566 -22.9603,-21.25717 -57.6559,-18.21259 -76.5124,6.71405 -7.2043,9.52341 -9.4098,15.34653 -10.0726,26.59439 -0.32,5.43142 -0.088,12.14702 0.5339,15.45062 3.1099,16.5208 16.6049,32.1869 33.1333,38.4637 6.9145,2.6259 22.6504,2.9559 31.465,0.66 z M 584.21733,787.01459 c 30.89862,-9.54361 45.13357,-47.88306 28.37923,-76.43468 -5.43344,-9.2593 -19.61174,-20.07065 -30.46121,-23.22753 -3.90863,-1.1373 -8.38687,-1.45483 -16.5,-1.16996 -9.67814,0.33983 -11.97047,0.77167 -17.51696,3.29991 -12.62845,5.75641 -21.9833,14.9054 -27.88159,27.26803 l -3.45919,7.25035 0.44334,14.24965 c 0.50771,16.31901 1.59018,19.98981 8.82523,29.92763 7.49841,10.29957 17.89231,17.54198 29.41237,20.49437 6.70013,1.71713 20.38638,0.9282 28.75878,-1.65777 z m 596.57487,1.40115 c 4.2393,-0.87134 10.4078,-2.99516 13.7078,-4.7196 8.4876,-4.43524 19.2178,-15.46603 23.5369,-24.19614 l 3.4631,-7 v -15 -15 l -3.4878,-7 c -4.9749,-9.98442 -15.2592,-20.08233 -25.5966,-25.13275 L 1184.5,686.5 h -14 c -13.8849,0 -14.0534,0.0273 -20.5,3.32112 -9.4349,4.82071 -16.5113,10.50936 -21.4959,17.28056 -6.2378,8.47339 -8.6539,15.4991 -9.2504,26.89901 -0.8776,16.77344 3.65,28.82597 15.2463,40.5856 13.2768,13.46379 27.4586,17.70049 46.2922,13.82945 z M 626.57907,682.92572 c 9.7676,-1.35855 16.24685,-3.91236 24.04622,-9.47787 13.7119,-9.78461 21.41278,-24.50837 21.35735,-40.83434 -0.0247,-7.26731 -2.52626,-18.15271 -5.65245,-24.59607 C 662.69862,600.53244 651.26711,589.1999 643,584.88925 L 636.5,581.5 H 620 603.5 l -6.5,3.4696 c -9.13313,4.87513 -19.76953,15.69988 -24.0829,24.50937 l -3.4171,6.97898 v 15.07289 15.07289 l 3.68479,7.45566 c 8.95107,18.11127 22.80789,27.39511 44.49285,29.80949 0.6477,0.0721 4.65335,-0.35231 8.90143,-0.94316 z M 1128.5,682.4956 c 19.5116,-4.0965 35.232,-18.54481 40.1099,-36.86399 1.8233,-6.84776 1.7523,-20.8208 -0.1428,-28.09665 -3.6344,-13.95335 -13.6504,-25.77202 -27.6075,-32.57632 l -8.3596,-4.07545 -15,0.31607 c -14.6739,0.3092 -15.1486,0.38856 -21.8349,3.65002 -31.4285,15.33022 -38.5528,59.23706 -13.6521,84.13773 12.4161,12.41607 28.8898,17.20316 46.487,13.50859 z M 741.95182,616.58322 c 26.30438,-8.89941 41.14974,-35.18047 34.52656,-61.12312 -5.21781,-20.43788 -20.09962,-34.73447 -40.69715,-39.09674 -13.19689,-2.79492 -26.64936,0.0801 -39.11015,8.35838 -21.66662,14.39419 -28.72291,42.67144 -16.61141,66.56823 7.52883,14.85489 19.70576,24.12822 36.44033,27.7511 6.2087,1.34413 17.41187,0.26225 25.45182,-2.45785 z M 1021.5,618.4956 c 25.5696,-5.36841 42.7381,-25.63348 42.7381,-50.44664 0,-15.62385 -5.2406,-28.0802 -16.0797,-38.21961 -7.4218,-6.94277 -15.6122,-11.18339 -25.746,-13.33023 -8.6411,-1.83061 -11.183,-1.82911 -19.9124,0.0118 -19.25964,4.06157 -34.48028,17.95331 -39.90462,36.42058 -2.00571,6.82846 -2.05639,19.87836 -0.10629,27.36531 4.94571,18.98784 19.62368,33.62795 38.23601,38.13742 7.5671,1.83336 12.2688,1.84725 20.7749,0.0614 z m 5049.25,448.7546 c 25.4375,-0.1486 67.0625,-0.1486 92.5,0 25.4375,0.1487 4.625,0.2703 -46.25,0.2703 -50.875,0 -71.6875,-0.1216 -46.25,-0.2703 z"
       id="path3" />
    <path
       style="fill:#ffffff"
       d="m 2286,1161.941 c -57.7846,-3.5226 -107.4913,-22.7818 -140.9971,-54.6302 -30.0612,-28.5743 -45.1341,-60.9163 -48.4973,-104.0608 l -0.643,-8.25 h 60.5234 60.5234 l 0.5896,3.75 c 1.8538,11.7892 4.9899,22.6475 8.7369,30.25 5.8198,11.8084 18.6565,24.7895 30.5403,30.8841 11.3281,5.8096 24.6469,9.0474 40.2238,9.7785 21.5173,1.0099 37.3855,-1.8865 53.9032,-9.8391 8.7437,-4.2097 11.6182,-6.2301 18.0204,-12.6661 13.3206,-13.3909 18.5115,-26.1938 18.5115,-45.6574 0,-17.36601 -3.381,-27.32308 -13.3423,-39.29275 -14.3142,-17.20029 -37.9856,-28.84901 -88.8884,-43.74207 -51.7542,-15.14213 -85.6118,-27.13707 -107.7044,-38.15701 -34.0673,-16.99304 -60.4706,-45.3059 -71.3827,-76.54532 -5.9024,-16.89732 -7.5766,-28.66693 -7.5766,-53.26285 0,-18.84579 0.3234,-23.60976 2.2556,-33.22776 14.4912,-72.13359 71.7504,-117.953 161.7037,-129.39689 14.8333,-1.8871 55.9427,-1.60503 72,0.49403 58.8046,7.68709 103.8693,31.3265 132.5782,69.54599 16.3728,21.79684 27.7511,51.96066 30.492,80.83463 l 0.6882,7.25 h -61.9212 -61.9211 l -1.6418,-8.69613 c -5.3677,-28.43211 -29.5817,-50.07479 -62.4336,-55.80368 -10.8354,-1.88954 -31.896,-1.93582 -41.5027,-0.0912 -34.0024,6.5289 -52.838,29.10405 -52.838,63.32832 0,17.31677 3.9182,27.15425 15.4829,38.87359 3.8594,3.91099 11.0671,9.75217 16.0171,12.9804 15.7186,10.25112 26.6107,14.31048 108.5,40.43632 24.2072,7.72303 48.5127,16.91188 64.4257,24.35651 32.1063,15.02041 61.224,43.75267 73.4459,72.47374 13.4428,31.5901 14.4921,76.73913 2.5975,111.76583 -13.5731,39.9694 -40.7057,71.0536 -80.4691,92.1884 -26.8889,14.2919 -56.3415,21.8691 -94,24.1832 -17.0407,1.0472 -17.9533,1.0458 -36,-0.054 z m 357,-286.94399 v -282.003 l 163.25,0.253 163.25,0.25299 0.2601,45.75 0.2601,45.75 H 2863.0101 2756 v 70.49493 70.49492 l 94.75,0.25508 94.75,0.25507 v 44.5 44.5 l -94.75,0.25507 -94.75,0.25508 V 990.50507 1065 h 107 107 v 46 46 H 2806.5 2643 Z M 3113,875 V 593 h 56.2568 56.2568 L 3353.5068,786.48105 3481.5,979.96209 3481.7525,786.48105 3482.0051,593 H 3538.5025 3595 v 282.00826 282.00824 l -56.7171,-0.2582 L 3481.5658,1156.5 3354.0329,964.08728 3226.5,771.67456 3226.2475,964.33728 3225.9949,1157 H 3169.4975 3113 Z m 754,46 V 685 h -75 -75 V 639.5 594 h 206.5 206.5 v 45.5 45.5 h -75 -75 v 236 236 h -56.5 -56.5 z m 531,137.6651 V 960.33025 L 4304.9005,781.91512 C 4253.6957,683.78681 4210.7131,601.3625 4209.3836,598.75 l -2.4173,-4.75 63.7669,0.0223 63.7668,0.0223 60.4954,128.56225 c 39.609,84.17538 60.7759,128.10148 61.3081,127.22768 0.447,-0.73401 27.5388,-58.48456 60.204,-128.33456 l 59.3913,-127 63.143,-0.25749 63.143,-0.25749 -5.446,10.25749 c -2.9953,5.64162 -46.0118,88.36871 -95.5924,183.83797 L 4511,961.66096 V 1059.3305 1157 H 4454.5 4398 Z M 4808,875 V 593 h 56.2568 56.2568 L 5048.5068,786.48105 5176.5,979.96209 5176.7525,786.48105 5177.0051,593 H 5233.5025 5290 v 282.00826 282.00824 l -56.7171,-0.2582 L 5176.5658,1156.5 5049.0329,964.08728 4921.5,771.67456 4921.2475,964.33728 4920.9949,1157 H 4864.4975 4808 Z m 634,-0.003 V 592.994 l 163.25,0.253 163.25,0.25299 0.2601,45.75 0.2601,45.75 H 5662.0101 5555 v 70.49493 70.49492 l 94.75,0.25508 94.75,0.25507 v 44.5 44.5 l -94.75,0.25507 -94.75,0.25508 V 990.50507 1065 h 107 107 v 46 46 H 5605.5 5442 Z m 470,0.503 V 594 h 56.5 56.5 v 237 237 h 92 92 v 44.5 44.5 H 6060.5 5912 Z"
       id="path2" />
  </g>
</svg>
